HIERARCHY
ROOT Hips
{
	OFFSET 0.000000 0.000000 0.000000 
	CHANNELS 6 Xposition Yposition Zposition Yrotation Zrotation Xrotation 
	JOINT Lumbar
	{
		OFFSET 0.000000 0.000000 0.000000 
		CHANNELS 3 Zrotation Xrotation Yrotation
		JOINT Neck
		{
			OFFSET 0.000000 0.445665 0.000000 
			CHANNELS 3 Zrotation Xrotation Yrotation
			End Site
			{
				OFFSET 0.000000 0.227535 0.000000 
			}
		}
		JOINT RightShoulder
		{
			OFFSET 0.019635 0.377685 0.194865 
			CHANNELS 3 Zrotation Xrotation Yrotation
			JOINT RightElbow
			{
				OFFSET 0.000000 -0.243375 0.000000 
				CHANNELS 2 Zrotation Yrotation
				JOINT RightWrist
				{
					OFFSET 0.000000 -0.264825 0.000000 
					CHANNELS 2 Zrotation Xrotation
					End Site
					{
						OFFSET 0.006600 -0.176220 0.000990 
					}
				}
			}
		}
		JOINT LeftShoulder
		{
			OFFSET 0.019635 0.377685 -0.194865 
			CHANNELS 3 Zrotation Xrotation Yrotation
			JOINT LeftElbow
			{
				OFFSET 0.000000 -0.243375 0.000000 
				CHANNELS 2 Zrotation Yrotation
				JOINT LeftWrist
				{
					OFFSET 0.000000 -0.264825 0.000000 
					CHANNELS 2 Zrotation Xrotation
					End Site
					{
						OFFSET 0.006600 -0.176220 -0.000990 
					}
				}
			}
		}
	}
	JOINT RightHip
	{
		OFFSET 0.052140 -0.069960 0.075570 
		CHANNELS 3 Zrotation Xrotation Yrotation
		JOINT RightKnee
		{
			OFFSET 0.000000 -0.402270 0.000000 
			CHANNELS 1 Zrotation
			JOINT RightAnkle
			{
				OFFSET 0.000000 -0.404085 0.000000 
				CHANNELS 3 Zrotation Xrotation Yrotation
				End Site
				{
					OFFSET 0.204105 -0.089430 0.008415 
				}
			}
		}
	}
	JOINT LeftHip
	{
		OFFSET 0.052140 -0.069960 -0.075570 
		CHANNELS 3 Zrotation Xrotation Yrotation
		JOINT LeftKnee
		{
			OFFSET 0.000000 -0.402270 0.000000 
			CHANNELS 1 Zrotation
			JOINT LeftAnkle
			{
				OFFSET 0.000000 -0.404085 0.000000 
				CHANNELS 3 Zrotation Xrotation Yrotation
				End Site
				{
					OFFSET 0.204105 -0.089430 -0.008415 
				}
			}
		}
	}
}
MOTION
Frames: 23
Frame Time: 0.02
-0 0.95578 -1e-05 181.34489 0 -5.97456 2.29237 2.60839 -5.46301 -32.35966 8.1922 9.34921 21.80177 -25.35062 5.45538 9.48411 81.3702 -1.24998 -1.76624 22.75577 3.22657 -5.06754 6.51046 -80.63758 -2.68801 1.48591 0.31022 3.83705 2.18183 -9.46407 -13.65056 -1.37144 -8.8227 -7.27222 2.11301 21.49325 -1.03405 -4.8717 2.50575 6.56883
0.00215 0.95588 0.00387 181.29169 0 -6.06541 2.12472 2.50097 -5.50688 -32.53151 8.45149 9.67936 22.22064 -25.90082 6.09985 9.67412 81.35543 -1.31648 -1.88377 23.68091 2.85702 -5.77304 6.71849 -80.3982 -2.71769 1.70403 0.83053 3.7968 2.80753 -10.20537 -13.73829 -1.3461 -9.24367 -7.17296 1.98986 21.00821 -1.0244 -4.87638 2.49123 7.09851
0.00429 0.95597 0.00773 181.23874 0 -6.15643 1.95775 2.3941 -5.55174 -32.70153 8.70954 10.00804 22.63868 -26.44842 6.74418 9.86491 81.34079 -1.38334 -2.00186 24.60297 2.49024 -6.47651 6.92651 -80.1609 -2.74754 1.92186 1.3516 3.75818 3.42996 -10.94848 -13.82449 -1.32107 -9.6629 -7.07404 1.86781 20.52642 -1.01482 -4.88106 2.47707 7.62459
0.00643 0.95607 0.01156 181.1855 0 -6.24856 1.79221 2.28883 -5.59982 -32.86949 8.96376 10.33505 23.05938 -26.9912 7.39205 10.05967 81.32604 -1.45209 -2.12249 25.5239 2.12983 -7.1801 7.13545 -79.92889 -2.77801 2.13965 1.87839 3.72314 4.04617 -11.70292 -13.90756 -1.29667 -10.07767 -6.97526 1.7486 20.05359 -1.00589 -4.88583 2.46435 8.14128
0.00862 0.95614 0.01554 181.13286 0 -6.33424 1.61951 2.1756 -5.62945 -33.05269 9.23659 10.67215 23.46835 -27.55978 8.01853 10.2322 81.31127 -1.51058 -2.22864 26.45347 1.73434 -7.88473 7.33822 -79.668 -2.80478 2.35643 2.37204 3.66609 4.69626 -12.39371 -14.00977 -1.2685 -10.51421 -6.87545 1.61392 19.53416 -0.9941 -4.89018 2.44419 8.70752
0.0107 0.95626 0.01921 181.07964 0 -6.43385 1.46185 2.07895 -5.69904 -33.20053 9.47094 10.98672 23.90012 -28.07303 8.69144 10.4524 81.29698 -1.59088 -2.36601 27.36203 1.41434 -8.58529 7.55472 -79.46907 -2.83964 2.57594 2.9372 3.65768 5.27342 -13.22088 -14.06963 -1.24859 -10.9055 -6.77813 1.51239 19.11321 -0.98798 -4.89539 2.43967 9.1685
0.01255 0.95651 0.02212 181.01831 0 -6.57313 1.34531 2.03028 -5.87666 -33.27538 9.59198 11.2525 24.42146 -28.44371 9.50054 10.80821 81.28014 -1.7343 -2.59049 28.25012 1.29403 -9.3034 7.80891 -79.43671 -2.89603 2.80247 3.70602 3.77124 5.66332 -14.43894 -14.02571 -1.24957 -11.1667 -6.68337 1.50058 18.96723 -1.00121 -4.90334 2.48086 9.33981
0.01429 0.95681 0.02473 180.95779 0 -6.72638 1.24397 1.9979 -6.09516 -33.30958 9.67571 11.49313 24.96071 -28.75699 10.35561 11.21166 81.26456 -1.89926 -2.84641 29.11035 1.2514 -10.01256 8.07714 -79.46774 -2.96077 3.03198 4.54614 3.93633 5.97756 -15.7918 -13.93717 -1.25914 -11.38274 -6.59188 1.52262 18.91984 -1.01951 -4.91203 2.53742 9.4047
0.01605 0.95707 0.02743 180.90074 0 -6.87268 1.13576 1.95657 -6.29678 -33.34709 9.78113 11.7372 25.4761 -29.09045 11.18595 11.5914 81.25084 -2.05278 -3.08783 29.96092 1.17879 -10.70848 8.33956 -79.47263 -3.0223 3.2609 5.35135 4.08601 6.31754 -17.07739 -13.85965 -1.26613 -11.62396 -6.50149 1.53032 18.82534 -1.03311 -4.9202 2.58537 9.51803
0.01795 0.95736 0.03029 180.82644 0 -7.02163 1.0272 1.92174 -6.49152 -33.45071 9.86614 12.01595 26.06101 -29.44907 12.03383 11.98046 81.22654 -2.21365 -3.33076 30.90853 1.08379 -11.47884 8.60008 -79.46612 -3.08142 3.48705 6.16948 4.20178 6.69341 -18.39491 -13.81873 -1.26791 -11.84832 -6.39989 1.53345 18.74104 -1.05681 -4.92936 2.64022 9.63167
0.01952 0.95762 0.03275 180.78959 0 -7.16819 0.92325 1.87729 -6.70992 -33.40434 9.98529 12.21524 26.50132 -29.74126 12.8543 12.36059 81.22495 -2.36383 -3.57721 31.64371 1.05384 -12.09014 8.86721 -79.4986 -3.14744 3.71904 6.97458 4.40054 6.97723 -19.66948 -13.69407 -1.28211 -12.09351 -6.32282 1.55434 18.65837 -1.0607 -4.93637 2.68429 9.71855
0.02028 0.95782 0.03422 180.84442 0 -7.30624 0.8258 1.80165 -6.98687 -32.9752 10.20389 12.2116 26.57199 -29.86781 13.60368 12.71132 81.28212 -2.48343 -3.83242 31.82959 1.18449 -12.2807 9.15507 -79.62164 -3.23122 3.97197 7.75271 4.81465 7.01819 -20.86488 -13.32243 -1.33257 -12.43747 -6.30951 1.61426 18.56065 -1.00837 -4.93965 2.69531 9.76475
0.0207 0.95799 0.03529 180.93903 0 -7.441 0.73287 1.71583 -7.28548 -32.39188 10.45894 12.12663 26.48949 -29.92881 14.32095 13.04988 81.36249 -2.59066 -4.08864 31.79596 1.37782 -12.30826 9.44792 -79.78202 -3.32147 4.22957 8.5102 5.31052 6.96941 -21.99843 -12.87286 -1.39445 -12.79813 -6.32151 1.6911 18.46038 -0.93585 -4.94033 2.69487 9.78628
0.02123 0.95818 0.03652 181.02296 0 -7.57644 0.63957 1.63513 -7.57227 -31.86592 10.69983 12.07251 26.45574 -30.01736 15.04256 13.38985 81.43499 -2.70091 -4.34022 31.84413 1.5426 -12.40004 9.73468 -79.92639 -3.4083 4.4815 9.26001 5.77002 6.9678 -23.11345 -12.47666 -1.44846 -13.13155 -6.32383 1.7615 18.35817 -0.87295 -4.94058 2.69934 9.8145
0.02194 0.95838 0.03783 181.0757 0 -7.71628 0.53987 1.55311 -7.86947 -31.39484 10.92901 12.04455 26.51356 -30.11331 15.80911 13.75 81.49742 -2.82325 -4.61134 31.97128 1.71078 -12.53399 10.03836 -80.06902 -3.49756 4.74881 10.08493 6.22888 6.94095 -24.43206 -12.00382 -1.51417 -13.54708 -6.318 1.82829 18.27217 -0.80894 -4.94751 2.70554 9.8584
0.02219 0.95853 0.03889 181.20282 0 -7.84538 0.45414 1.47095 -8.1488 -30.77002 11.19204 11.94155 26.34041 -30.17909 16.47378 14.06322 81.58487 -2.91672 -4.84061 31.87697 1.88524 -12.5404 10.30744 -80.22317 -3.58302 4.98477 10.74681 6.70673 6.94086 -25.30767 -11.67179 -1.55799 -13.79522 -6.33584 1.90559 18.15089 -0.74166 -4.94008 2.70528 9.86477
0.02134 0.95858 0.03941 181.52592 0 -7.951 0.4078 1.39308 -8.38029 -29.78802 11.53659 11.66529 25.59847 -30.1772 16.86505 14.26108 81.74813 -2.93721 -4.96198 31.26989 2.06569 -12.2441 10.4825 -80.40072 -3.65762 5.13618 10.96966 7.22639 7.08618 -24.99619 -11.75555 -1.53795 -13.58791 -6.40621 2.01265 17.92953 -0.67735 -4.89157 2.68949 9.77725
0.02003 0.95859 0.0397 181.92245 0 -8.04484 0.37494 1.31501 -8.5916 -28.65208 11.91438 11.31431 24.62392 -30.14755 17.15472 14.40968 81.93356 -2.9282 -5.03937 30.43981 2.24908 -11.82353 10.62179 -80.58796 -3.72782 5.25514 11.02773 7.76056 7.25424 -24.23694 -11.98235 -1.49443 -13.21186 -6.50049 2.12869 17.67305 -0.60976 -4.82875 2.66765 9.6525
0.0189 0.95861 0.04008 182.28511 0 -8.1405 0.33453 1.23539 -8.80745 -27.56635 12.27956 10.9878 23.7344 -30.13122 17.49053 14.57337 82.10051 -2.9302 -5.13181 29.68171 2.42827 -11.45329 10.77581 -80.77017 -3.79927 5.38703 11.15671 8.28137 7.37776 -23.6675 -12.13883 -1.46351 -12.90353 -6.58848 2.23715 17.43411 -0.5382 -4.77426 2.6488 9.54312
0.01791 0.95867 0.04049 182.65118 0 -8.25105 0.30017 1.162 -9.04353 -26.5553 12.6368 10.69642 22.92464 -30.10972 17.82509 14.76794 82.30323 -2.94209 -5.24595 29.03761 2.62217 -11.10237 10.93722 -80.95701 -3.87441 5.52729 11.30133 8.83266 7.63601 -23.15152 -12.31545 -1.42957 -12.62501 -6.65912 2.36072 17.18778 -0.48634 -4.71332 2.62841 9.44001
0.0165 0.95862 0.0408 183.02719 0 -8.32773 0.25647 1.07615 -9.23256 -25.35828 13.01627 10.31776 21.89828 -30.09311 18.13891 14.88606 82.43704 -2.92627 -5.30344 28.10887 2.78481 -10.68499 11.0737 -81.13521 -3.94037 5.64167 11.37509 9.32405 7.62838 -22.42145 -12.48457 -1.39029 -12.25488 -6.7699 2.4551 16.94938 -0.39626 -4.66074 2.61008 9.31449
0.01408 0.95828 0.04091 183.41154 0 -8.31452 0.18276 0.95249 -9.29453 -23.65177 13.46327 9.69488 20.30824 -30.09818 18.41724 14.81043 82.36979 -2.8437 -5.2238 26.42525 2.86424 -10.10504 11.15827 -81.29373 -3.98505 5.69794 11.28815 9.63458 6.80524 -21.18578 -12.6033 -1.39635 -11.57496 -6.99782 2.46301 16.73322 -0.17164 -4.64993 2.5977 9.14419
0.01123 0.95783 0.04093 183.80347 0 -8.26742 0.09937 0.81708 -9.30989 -21.77123 13.92836 8.9912 18.51378 -30.10902 18.67895 14.65896 82.23337 -2.73403 -5.08724 24.46894 2.91106 -9.46489 11.21729 -81.44179 -4.0201 5.72808 11.13654 9.88542 5.72416 -19.75511 -12.70921 -1.39038 -10.82284 -7.26341 2.44163 16.52732 0.08655 -4.64568 2.58784 8.9517
